<svg width="331" height="105" viewBox="0 0 331 105" fill="none" xmlns="http://www.w3.org/2000/svg">
<path d="M80.4485 20.8831L103.939 20.8835L103.939 24.1235L90.5286 24.1233L94.0386 26.2833L94.039 52.3833L90.394 52.3833L90.3936 26.7333L88.6836 24.1233L80.4486 24.1231L80.4485 20.8831ZM116.026 52.3836L116.026 46.0836L122.326 46.0837L122.326 52.3837L116.026 52.3836ZM143.548 20.884L156.058 20.8842L156.059 52.3842L152.459 52.3841L152.459 37.9841L139.859 37.984L139.859 52.384L136.259 52.3839L136.258 28.3989L143.548 20.884ZM139.858 29.254L139.859 34.744L152.459 34.7441L152.458 24.1241L144.853 24.124L139.858 29.254ZM169.991 52.3844L169.991 46.0844L176.291 46.0845L176.291 52.3845L169.991 52.3844ZM190.178 20.8847L206.468 20.8849L210.068 26.2849L210.068 33.5749L206.468 37.2199L193.778 37.2197L193.779 52.3847L190.179 52.3847L190.178 20.8847ZM193.823 24.1247L193.823 36.1397L197.468 34.0248L205.073 34.0249L206.468 32.5849L206.468 26.7799L204.713 24.1249L193.823 24.1247ZM223.956 52.3851L223.956 46.0851L230.256 46.0852L230.256 52.3852L223.956 52.3851ZM260.433 20.8856L264.078 20.8857L264.079 52.3857L260.434 52.3856L260.433 50.1806L256.834 52.3856L247.744 52.3855L244.098 46.9854L244.098 20.8854L247.698 20.8855L247.698 46.5355L249.453 49.1455L258.993 49.1456L260.433 47.6606L260.433 20.8856ZM277.921 52.3859L277.921 46.0859L284.221 46.086L284.221 52.386L277.921 52.3859Z" fill="black"/>
<path d="M20.9402 60.9514L26.8225 60.9515" stroke="#C745FF"/>
<path d="M34.3091 60.9516L36.4481 60.9516" stroke="#C745FF"/>
<path d="M43.9348 60.9517L49.8171 60.9518" stroke="#C745FF"/>
<path d="M15.0579 66.2083L54.7716 66.2088" stroke="#C745FF"/>
<path d="M48.7819 37.8214C48.782 44.7774 42.808 50.4636 35.3784 50.4635C27.9489 50.4634 21.9747 44.777 21.9746 37.821C21.9745 30.865 27.9485 25.1788 35.3781 25.1789C42.8076 25.179 48.7818 30.8654 48.7819 37.8214Z" stroke="black"/>
<path d="M41.2954 37.8213C41.2955 40.6911 38.6966 43.1038 35.3784 43.1038C32.0603 43.1037 29.4613 40.6909 29.4613 37.8211C29.4612 34.9513 32.0601 32.5385 35.3783 32.5386C38.6964 32.5386 41.2954 34.9515 41.2954 37.8213Z" stroke="black"/>
<path d="M11.8492 51.4888L22.5443 43.6036C26.2236 48.9567 28.9083 50.6583 34.309 50.9635L34.3092 65.6828L11.8492 51.4888Z" stroke="black"/>
<path d="M58.9078 51.4895L48.2126 43.604C44.5334 48.957 41.8488 50.6585 36.448 50.9635L36.4482 65.6828L58.9078 51.4895Z" stroke="black"/>
<path d="M22.5442 39.9238L15.0576 39.9237L15.0577 48.8604L23.079 43.0779" stroke="black"/>
<path d="M17.7313 39.398L17.7309 15.2162L25.7522 12.0622L44.4687 12.0625L53.0249 15.2167L52.7579 40.4499M52.7579 40.4499L48.7472 40.4498L47.6777 43.0783L56.2339 48.861L56.2338 40.45L52.7579 40.4499ZM27.3563 1.02272L28.9608 10.4852L42.3297 10.4854L44.4686 1.02296L27.3563 1.02272Z" stroke="black"/>
<path d="M32.1694 12.588L32.1696 24.6789L38.5867 24.679L38.5865 12.5881" stroke="black"/>
<path d="M38.5867 16.7936C44.6264 15.8453 53.0252 21.5251 53.0252 21.5251" stroke="black"/>
<path d="M52.4904 29.4104C46.9552 25.6686 43.5096 23.4214 38.5867 24.1533" stroke="black"/>
<path d="M17.7313 28.8842C25.363 24.1371 28.207 23.5623 32.1697 24.1532M35.3782 25.2046L35.3783 32.5643" stroke="black"/>
<path d="M39.6563 34.1414L45.0038 29.4103" stroke="black"/>
<path d="M41.2607 39.9241L46.6084 44.1297" stroke="black"/>
<path d="M35.3784 43.6038L35.3785 50.4378" stroke="black"/>
<path d="M29.9754 39.1641L24.1484 43.6943" stroke="black"/>
<path d="M17.731 22.0502C21.7586 18.3565 25.0579 17.6555 31.6347 17.3192" stroke="black"/>
<path d="M7.03659 73.5678L23.0791 58.8487" stroke="#C745FF"/>
<path d="M62.6514 74.62L47.678 58.849" stroke="#C745FF"/>
<path d="M10.0447 70.9394L58.908 70.9401" stroke="#C745FF"/>
<path d="M29.4958 36.7698L22.5439 36.7697" stroke="black"/>
<path d="M32.1697 33.6156L26.822 28.8843" stroke="black"/>
<path d="M41.2605 36.7699L48.2123 36.77" stroke="black"/>
<path d="M38.5869 42.0268L41.2608 48.8608" stroke="black"/>
<path d="M32.1699 42.0267L29.4962 48.8606" stroke="black"/>
<path d="M55.1639 9.4342C56.2334 8.90852 56.2334 8.90852 56.7681 6.80576C57.3029 8.38284 57.5901 8.70201 58.9071 8.90853C57.6432 9.5973 57.8139 9.89458 57.3029 11.537C56.2334 9.43421 56.5518 9.83371 55.1639 9.4342Z" stroke="black" stroke-width="0.4"/>
<path d="M60.5118 20.4738C61.5813 19.9481 61.5813 19.9481 62.116 17.8453C62.6508 19.4224 62.938 19.7416 64.255 19.9481C62.9911 20.6369 63.1618 20.9341 62.6508 22.5766C61.5813 20.4738 61.8997 20.8733 60.5118 20.4738Z" stroke="black" stroke-width="0.4"/>
<path d="M18.8003 4.70245C19.8698 4.17677 19.8698 4.17677 20.4046 2.07401C20.9393 3.65109 21.2266 3.97026 22.5436 4.17678C21.2797 4.86555 21.4504 5.16283 20.9394 6.80524C19.8698 4.70246 20.1883 5.10196 18.8003 4.70245Z" stroke="black" stroke-width="0.4"/>
<path d="M5.96683 43.6034C7.03634 43.0777 7.03634 43.0777 7.57107 40.975C8.10585 42.5521 8.39309 42.8712 9.71012 43.0777C8.4462 43.7665 8.61687 44.0638 8.10589 45.7062C7.03635 43.6034 7.35481 44.0029 5.96683 43.6034Z" stroke="black" stroke-width="0.4"/>
<circle cx="7.03882" cy="26.0205" r="7" fill="#2438BA"/>
<circle cx="47.0388" cy="8.02051" r="2" fill="#CB43E6"/>
<circle cx="65.0388" cy="48.0205" r="5" fill="#9DF289"/>
</svg>
