<svg width="71" height="72" viewBox="0 0 71 72" fill="none" xmlns="http://www.w3.org/2000/svg">
<path d="M20.0118 58.0378L25.5118 58.0378" stroke="#5C0D7E"/>
<path d="M32.5118 58.0378L34.5118 58.0378" stroke="#5C0D7E"/>
<path d="M41.5118 58.0378L47.0118 58.0378" stroke="#5C0D7E"/>
<path d="M14.5118 63.0378L51.6443 63.0378" stroke="#5C0D7E"/>
<path d="M46.0118 36.0378C46.0118 42.6469 40.4341 48.0378 33.5118 48.0378C26.5896 48.0378 21.0118 42.6469 21.0118 36.0378C21.0118 29.4287 26.5896 24.0378 33.5118 24.0378C40.4341 24.0378 46.0118 29.4287 46.0118 36.0378Z" stroke="black"/>
<path d="M39.0118 36.0378C39.0118 38.7591 36.5912 41.0378 33.5118 41.0378C30.4324 41.0378 28.0118 38.7591 28.0118 36.0378C28.0118 33.3164 30.4324 31.0378 33.5118 31.0378C36.5912 31.0378 39.0118 33.3164 39.0118 36.0378Z" stroke="black"/>
<path d="M11.5118 49.0378L21.5118 41.5378C24.952 46.6292 27.4621 48.2476 32.5118 48.5378L32.5118 62.5378L11.5118 49.0378Z" stroke="black"/>
<path d="M55.5118 49.0378L45.5118 41.5378C42.0717 46.6292 39.5616 48.2476 34.5118 48.5378L34.5118 62.5378L55.5118 49.0378Z" stroke="black"/>
<path d="M21.5118 38.0378L14.5118 38.0378L14.5118 46.5378L22.0118 41.0378" stroke="black"/>
<path d="M17.0118 37.5378L17.0118 14.5378L24.5118 11.5378L42.0118 11.5378L50.0118 14.5378L49.7618 38.5378M49.7618 38.5378L46.0118 38.5378L45.0118 41.0378L53.0118 46.5378L53.0118 38.5378L49.7618 38.5378ZM26.0118 1.03778L27.5118 10.0378L40.0118 10.0378L42.0118 1.03778L26.0118 1.03778Z" stroke="black"/>
<path d="M30.5118 12.0378L30.5118 23.5378L36.5118 23.5378L36.5118 12.0378" stroke="black"/>
<path d="M36.5118 16.0377C42.159 15.1357 50.0118 20.5378 50.0118 20.5378" stroke="black"/>
<path d="M49.5118 28.0378C44.3364 24.4789 41.1148 22.3415 36.5118 23.0378" stroke="black"/>
<path d="M17.0118 27.5378C24.1476 23.0225 26.8067 22.4758 30.5118 23.0378M33.5118 24.0378L33.5118 31.0378" stroke="black"/>
<path d="M37.5118 32.5378L42.5118 28.0378" stroke="black"/>
<path d="M39.0118 38.0378L44.0118 42.0378" stroke="black"/>
<path d="M33.5118 41.5378L33.5118 48.0378" stroke="black"/>
<path d="M28.4601 37.3151L23.0119 41.6239" stroke="black"/>
<path d="M17.0118 21.0377C20.7777 17.5245 23.8626 16.8577 30.0118 16.5377" stroke="black"/>
<path d="M7.01184 70.0378L22.0118 56.0378" stroke="#5C0D7E"/>
<path d="M59.0118 71.0378L45.0118 56.0378" stroke="#5C0D7E"/>
<path d="M9.82446 67.5378L55.5118 67.5378" stroke="#5C0D7E"/>
<path d="M28.0118 35.0378L21.5118 35.0378" stroke="black"/>
<path d="M30.5118 32.0378L25.5118 27.5378" stroke="black"/>
<path d="M39.0118 35.0378L45.5118 35.0378" stroke="black"/>
<path d="M36.5118 40.0378L39.0118 46.5378" stroke="black"/>
<path d="M30.5118 40.0378L28.0118 46.5378" stroke="black"/>
<path d="M52.0118 9.03778C53.0118 8.53778 53.0118 8.53778 53.5118 6.53778C54.0118 8.03778 54.2804 8.34134 55.5118 8.53775C54.3301 9.19288 54.4896 9.47563 54.0118 11.0378C53.0118 9.03778 53.3096 9.41775 52.0118 9.03778Z" stroke="black" stroke-width="0.4"/>
<path d="M57.0118 19.5378C58.0118 19.0378 58.0118 19.0378 58.5118 17.0378C59.0118 18.5378 59.2804 18.8413 60.5118 19.0378C59.3301 19.6929 59.4896 19.9756 59.0118 21.5378C58.0118 19.5378 58.3096 19.9177 57.0118 19.5378Z" stroke="black" stroke-width="0.4"/>
<path d="M18.0118 4.53778C19.0118 4.03778 19.0118 4.03778 19.5118 2.03778C20.0118 3.53778 20.2804 3.84134 21.5118 4.03775C20.3301 4.69288 20.4896 4.97563 20.0118 6.53778C19.0118 4.53778 19.3096 4.91775 18.0118 4.53778Z" stroke="black" stroke-width="0.4"/>
<path d="M6.01184 41.5378C7.01184 41.0378 7.01184 41.0378 7.51184 39.0378C8.01184 40.5378 8.28041 40.8413 9.51183 41.0378C8.33005 41.6929 8.48963 41.9756 8.01184 43.5378C7.01184 41.5378 7.3096 41.9177 6.01184 41.5378Z" stroke="black" stroke-width="0.4"/>
<circle cx="7.01184" cy="26.0378" r="7" fill="#252E63"/>
<circle cx="47.0118" cy="8.03778" r="2" fill="#592563"/>
<circle cx="65.0118" cy="48.0378" r="5" fill="#316325"/>
</svg>
