<svg width="71" height="75" viewBox="0 0 71 75" fill="none" xmlns="http://www.w3.org/2000/svg">
<g id="Train icon">
<path id="Vector 26" d="M20.9403 60.9514L26.8226 60.9515" stroke="#C745FF"/>
<path id="Vector 27" d="M34.3092 60.9516L36.4482 60.9516" stroke="#C745FF"/>
<path id="Vector 28" d="M43.9349 60.9517L49.8173 60.9518" stroke="#C745FF"/>
<path id="Vector 14" d="M15.0581 66.2083L54.7719 66.2088" stroke="#C745FF"/>
<path id="Ellipse 32" d="M48.7822 37.8214C48.7823 44.7773 42.8082 50.4636 35.3787 50.4635C27.9491 50.4634 21.9749 44.777 21.9748 37.821C21.9747 30.865 27.9487 25.1788 35.3783 25.1789C42.8079 25.179 48.7821 30.8654 48.7822 37.8214Z" stroke="white"/>
<path id="Ellipse 33" d="M41.2956 37.8213C41.2956 40.6911 38.6967 43.1039 35.3785 43.1038C32.0604 43.1038 29.4614 40.6909 29.4614 37.8211C29.4613 34.9513 32.0602 32.5386 35.3784 32.5386C38.6966 32.5386 41.2955 34.9515 41.2956 37.8213Z" stroke="white"/>
<path id="Vector 2" d="M11.8494 51.4888L22.5444 43.6036C26.2237 48.9567 28.9084 50.6583 34.3092 50.9634L34.3094 65.6828L11.8494 51.4888Z" stroke="white"/>
<path id="Vector 3" d="M58.9079 51.4895L48.2127 43.604C44.5335 48.957 41.8489 50.6585 36.4481 50.9635L36.4483 65.6828L58.9079 51.4895Z" stroke="white"/>
<path id="Vector 4" d="M22.5443 39.9238L15.0577 39.9237L15.0579 48.8605L23.0791 43.078" stroke="white"/>
<path id="Vector 5" d="M17.7315 39.398L17.7312 15.2162L25.7525 12.0622L44.469 12.0625L53.0251 15.2167L52.7581 40.4499M52.7581 40.4499L48.7474 40.4498L47.678 43.0783L56.2342 48.861L56.2341 40.45L52.7581 40.4499ZM27.3566 1.02272L28.961 10.4852L42.3299 10.4854L44.4688 1.02296L27.3566 1.02272Z" stroke="white"/>
<path id="Vector 6" d="M32.1696 12.588L32.1697 24.6788L38.5868 24.6789L38.5866 12.588" stroke="white"/>
<path id="Vector 7" d="M38.5867 16.7936C44.6264 15.8454 53.0252 21.5251 53.0252 21.5251" stroke="white"/>
<path id="Vector 8" d="M52.4906 29.4104C46.9553 25.6686 43.5097 23.4213 38.5868 24.1533" stroke="white"/>
<path id="Vector 9" d="M17.7314 28.8842C25.3631 24.1371 28.2071 23.5623 32.1698 24.1532M35.3783 25.2046L35.3784 32.5643" stroke="white"/>
<path id="Vector 16" d="M39.6564 34.1414L45.0039 29.4103" stroke="white"/>
<path id="Vector 17" d="M41.2607 39.9241L46.6084 44.1297" stroke="white"/>
<path id="Vector 18" d="M35.3784 43.6038L35.3785 50.4378" stroke="white"/>
<path id="Vector 19" d="M29.9756 39.1641L24.1487 43.6943" stroke="white"/>
<path id="Vector 10" d="M17.7313 22.0502C21.7589 18.3565 25.0581 17.6555 31.6349 17.3192" stroke="white"/>
<path id="Vector 11" d="M7.03683 73.5678L23.0793 58.8487" stroke="#C745FF"/>
<path id="Vector 12" d="M62.6515 74.62L47.6781 58.8491" stroke="#C745FF"/>
<path id="Vector 13" d="M10.0449 70.9394L58.9082 70.9401" stroke="#C745FF"/>
<path id="Vector 20" d="M29.496 36.7698L22.5442 36.7697" stroke="white"/>
<path id="Vector 21" d="M32.1698 33.6156L26.8221 28.8843" stroke="white"/>
<path id="Vector 22" d="M41.2607 36.7699L48.2126 36.77" stroke="white"/>
<path id="Vector 24" d="M38.587 42.0268L41.2609 48.8608" stroke="white"/>
<path id="Vector 25" d="M32.1699 42.0267L29.4962 48.8606" stroke="white"/>
<path id="Vector 29" d="M55.1641 9.43418C56.2336 8.9085 56.2336 8.9085 56.7683 6.80575C57.3031 8.38283 57.5904 8.70199 58.9074 8.90851C57.6435 9.59728 57.8141 9.89457 57.3032 11.537C56.2336 9.4342 56.5521 9.83369 55.1641 9.43418Z" stroke="white" stroke-width="0.4"/>
<path id="Vector 30" d="M60.5118 20.4737C61.5813 19.9481 61.5813 19.9481 62.116 17.8453C62.6508 19.4224 62.938 19.7415 64.255 19.9481C62.9911 20.6368 63.1618 20.9341 62.6508 22.5765C61.5813 20.4737 61.8997 20.8732 60.5118 20.4737Z" stroke="white" stroke-width="0.4"/>
<path id="Vector 32" d="M18.8005 4.70243C19.87 4.17675 19.87 4.17675 20.4047 2.074C20.9395 3.65108 21.2267 3.97024 22.5437 4.17676C21.2798 4.86553 21.4505 5.16282 20.9395 6.80522C19.87 4.70244 20.1884 5.10194 18.8005 4.70243Z" stroke="white" stroke-width="0.4"/>
<path id="Vector 31" d="M5.96683 43.6034C7.03634 43.0778 7.03634 43.0778 7.57107 40.975C8.10585 42.5521 8.39309 42.8712 9.71012 43.0778C8.4462 43.7665 8.61687 44.0638 8.10589 45.7062C7.03635 43.6034 7.35481 44.0029 5.96683 43.6034Z" stroke="white" stroke-width="0.4"/>
<circle id="Ellipse 34" cx="7.03894" cy="26.0205" r="7" fill="#2438BA"/>
<circle id="Ellipse 35" cx="47.0389" cy="8.02051" r="2" fill="#CB43E6"/>
<circle id="Ellipse 36" cx="65.0389" cy="48.0205" r="5" fill="#9DF289"/>
</g>
</svg>
